<?xml version="1.0" encoding="iso-8859-1"?>
<!-- Generator: Adobe Illustrator 19.0.0, SVG Export Plug-In . SVG Version: 6.00 Build 0)  -->
<svg version="1.1" id="Capa_1" xmlns="http://www.w3.org/2000/svg" xmlns:xlink="http://www.w3.org/1999/xlink" x="0px" y="0px"
	 viewBox="0 0 512 512" style="enable-background:new 0 0 512 512;" xml:space="preserve">
<g>
	<g>
		<path d="M447.024,280.39c13.554-12.788,20.633-26.985,20.633-41.698c0-20.724-13.57-39.877-39.449-55.989
			c19.772-15.258,24.4-30.645,24.4-41.672c0-24.145-21.659-46.024-60.985-61.605C355.239,65.012,307.074,57.073,256,57.073
			c-51.073,0-99.239,7.939-135.623,22.354c-39.327,15.581-60.985,37.459-60.985,61.604c0,9.241,3.262,18.325,9.525,26.809
			C24.33,186.113,0,210.972,0,238.692c0,23.202,17.619,44.856,50.027,62.021c-19.665,15.151-29.949,32.454-29.949,50.689
			c0,29.374,26.792,56.165,75.44,75.441c45.706,18.111,106.264,28.084,170.521,28.084s124.816-9.974,170.521-28.084
			c48.648-19.274,75.44-46.067,75.44-75.441C512,324.1,489.076,299.232,447.024,280.39z M256,77.151
			c104.031,0,176.53,33.666,176.53,63.881c0,11.279-10.159,23.236-28.602,33.664C370.442,193.621,315.142,204.92,256,204.92
			c-70.342,0-134.314-15.932-162.975-40.591c-0.002-0.002-0.004-0.004-0.007-0.006c-8.99-7.718-13.548-15.555-13.548-23.293
			C79.47,110.817,151.969,77.151,256,77.151z M20.078,238.692c0-19.883,24.008-40.399,64.518-55.404
			c34.075,25.831,98.829,41.711,171.404,41.711c59.757,0,116.335-11.242,152.967-30.218c24.945,13.312,38.612,28.796,38.612,43.911
			c0,15.401-14.037,28.202-25.811,36.228c-38.403,26.159-110.419,42.41-187.944,42.41c-60.474,0-118.656-9.973-159.627-27.362
			c-0.083-0.036-0.168-0.07-0.253-0.104C39.706,275.297,20.078,256.654,20.078,238.692z M429.164,408.177
			c-43.408,17.2-101.34,26.671-163.125,26.671s-119.718-9.472-163.125-26.671c-39.883-15.803-62.757-36.497-62.757-56.775
			c0-17.255,15.989-31.45,31.001-40.975c43.476,17.419,100.968,26.979,162.666,26.979c79.742,0,151.932-16.003,194.789-42.984
			c40.307,15.84,63.308,36.466,63.308,56.98C491.922,371.681,469.047,392.375,429.164,408.177z"/>
	</g>
</g>
<g>
	<g>
		<path d="M327.574,106.909c-21.19-3.393-45.939-5.186-71.574-5.186c-5.545,0-10.039,4.496-10.039,10.039
			c0,5.544,4.495,10.039,10.039,10.039c24.589,0,48.241,1.706,68.399,4.933c0.538,0.086,1.072,0.128,1.599,0.128
			c4.845,0,9.111-3.517,9.901-8.454C336.777,112.934,333.048,107.785,327.574,106.909z"/>
	</g>
</g>
<g>
	<g>
		<path d="M356.392,112.439c-12.919,0-12.941,20.078,0,20.078C369.312,132.518,369.333,112.439,356.392,112.439z"/>
	</g>
</g>
<g>
</g>
<g>
</g>
<g>
</g>
<g>
</g>
<g>
</g>
<g>
</g>
<g>
</g>
<g>
</g>
<g>
</g>
<g>
</g>
<g>
</g>
<g>
</g>
<g>
</g>
<g>
</g>
<g>
</g>
</svg>
